<?xml version="1.0" encoding="UTF-8"?><svg id="b" xmlns="http://www.w3.org/2000/svg" viewBox="0 0 925.11 174.38"><defs><style>.d{fill:#fff;}</style></defs><g id="c"><path class="d" d="M1.66,59.92c6.65-1.79,9.16-7.8,13.57-11.07-4.01-7.44-14.06-10.03-14.14-21.29,11.38,11.76,21.83,22.57,32.74,33.84,4.5-4.97,8.03-8.86,11.98-13.22-6.42-6.35-13.27-13.1-20.09-19.89C18.39,21.01,11.04,13.75,3.86,6.33,2.45,4.88,1.76,2.73.3.13h7.87c.24,1.48-.05,3.49.82,4.4,18.1,19.09,36.33,38.06,54.88,57.42,5.14-5.87,8.69-9.93,12.8-14.62C61.51,32.27,45.61,16.47,29.2.19h9.66c.42,1.25.48,2.96,1.36,3.84,18.37,18.39,36.83,36.69,55.28,55,.22.21.59.27.95.43,3.63-3.82,7.27-7.65,11.72-12.33-15.49-15.17-31.36-30.71-48.12-47.13h9.39c.68,1.47,1.01,3.29,2.09,4.38,18.08,18.21,36.25,36.34,54.42,54.47.33.33.8.52,1.19.77,3.76-3.85,7.46-7.63,11.25-11.52-15.47-15.43-31.24-31.15-48.08-47.95h10.36c.43,1.19.55,2.9,1.46,3.82,18.28,18.47,36.65,36.85,55.01,55.24.2.2.57.25.73.32,3.82-3.74,7.6-7.43,11.89-11.63-15.93-15.67-31.78-31.27-48.64-47.86h9.46c1.38,2.02,2.33,3.99,3.79,5.45,12.79,12.9,25.75,25.63,38.42,38.64,2.05,2.1,2.93,5.33,4.2,7.75-2.72,1.1-4.55,1.31-5.58,2.34-18.22,18.07-36.34,36.24-54.47,54.41-.33.33-.51.81-.84,1.34,3.87,3.63,7.7,7.21,12.45,11.66,15.46-15.57,31.22-31.44,46.98-47.3l1.48.83c-1.27,2.54-2.01,5.57-3.89,7.52-8.67,8.99-17.65,17.69-26.47,26.44,4.11,3.95,8,7.69,12.82,12.32,4.85-5.35,10.05-11.1,15.25-16.84.35.2.69.41,1.04.61v7.43c-4.91,4.36-9.39,8.33-13.59,12.06,3.76,8.01,14.66,10.32,13.94,22.07-11.33-11.84-21.84-22.82-32.44-33.9-4.87,4.91-8.6,8.67-12.52,12.62,9.15,9.23,18.25,18.44,27.39,27.61,5.18,5.19,10.48,10.26,15.58,15.52,1.13,1.16,1.66,2.91,2.87,5.11h-7.53c-.69-1.51-1.02-3.32-2.09-4.4-18.08-18.21-36.25-36.34-54.42-54.47-.34-.34-.82-.54-1.39-.89-3.71,3.79-7.42,7.57-11.15,11.38,15.69,15.88,31.42,31.8,47.78,48.37h-9.42c-.55-1.47-.68-3.12-1.58-4.03-18.33-18.43-36.74-36.78-55.15-55.14-.21-.21-.59-.24-.99-.4-3.63,3.79-7.29,7.61-11.48,11.98,15.57,15.37,31.49,31.09,48.22,47.61h-10.09c-.57-1.47-.74-3.27-1.73-4.27-18.2-18.33-36.5-36.56-54.79-54.8-.22-.22-.56-.31-.76-.42-3.8,3.9-7.58,7.77-11.75,12.05,15.44,15.33,31.26,31.04,47.7,47.35h-9.39c-.54-1.2-.84-3.01-1.9-4.08-18.2-18.32-36.5-36.55-54.79-54.8-.21-.21-.56-.3-.92-.48-3.73,3.72-7.48,7.46-11.43,11.4,15.85,15.48,31.66,30.93,47.48,46.37-.34.51-.68,1.02-1.01,1.53h-8.3c-.98-1.73-1.58-3.58-2.8-4.81-12.89-13.03-25.96-25.89-38.76-39.01-2.05-2.1-3.02-5.27-4.58-8.1,2.68-.75,4.44-.71,5.3-1.57,18.56-18.66,37.02-37.41,55.29-55.94-3.55-3.44-7.43-7.2-11.66-11.3-15.08,15.14-30.79,30.91-46.92,47.11-1.45-3.99-.78-6.6,1.9-9.22,8.9-8.73,17.6-17.66,26.64-26.79-3.85-3.59-7.71-7.18-12.37-11.52-4.77,5.5-9.84,11.37-14.92,17.23-.53-.38-1.07-.76-1.6-1.13v-8.64ZM65.76,121.25c18.98-19.16,38.13-38.5,56.76-57.3-3.47-3.57-7.22-7.42-10.69-10.98-18.89,19.08-37.93,38.33-57.1,57.69,3.41,3.27,7.23,6.94,11.03,10.59ZM95.66,121.22c19.57-19.53,38.83-38.74,58.18-58.06-3.47-3.47-7.22-7.21-10.18-10.17-19.44,19.38-38.79,38.66-58.1,57.89,3.18,3.26,6.77,6.93,10.1,10.34ZM34.56,121.58c19.29-19.31,38.53-38.57,57.21-57.27-3.56-3.91-7.06-7.77-10.39-11.43-19.35,19.37-38.51,38.54-57.77,57.82,3.57,3.55,7.32,7.27,10.95,10.88Z"/><path class="d" d="M286.85,28.29c-4.31,14.66-8.52,29.18-12.94,43.63-.29.96-2.26,2.14-3.24,1.99-1.26-.2-2.96-1.45-3.35-2.62-3.2-9.63-6.13-19.34-9.15-29.03-.44-1.42-.92-2.82-1.78-5.44-2.9,9.24-5.47,17.41-8.04,25.59-1,3.17-1.81,6.43-3.1,9.48-.43,1-2.1,2.05-3.19,2.04-1.08-.01-2.81-1.13-3.11-2.11-4.43-14.43-8.67-28.92-12.95-43.39,4.15-1.98,5.32.28,6.2,3.34,3.18,10.99,6.44,21.96,10.63,33.02,3.03-9.84,5.94-19.72,9.19-29.5.9-2.7,2.57-7.02,4.27-7.22,4.67-.53,3.71,4.59,4.64,7.33,3.3,9.72,6.09,19.62,9.52,30.9,3.8-12.6,7.26-23.74,10.46-34.95.84-2.96,1.97-4.48,5.96-3.04Z"/><path class="d" d="M527.41,73.44c-4.52,1.73-4.93-.79-5.14-3.74-.69-9.96-1.45-19.92-2.19-29.88-.06-.74-.19-1.48-1.18-2.38-3.89,9.62-7.69,19.28-11.73,28.84-1.16,2.73-3.01,5.17-4.54,7.75-1.52-2.59-3.35-5.04-4.51-7.78-3.99-9.47-7.74-19.03-12.48-28.49-.78,9.29-1.56,18.58-2.32,27.87-.14,1.66-.24,3.32-.28,4.99-.07,3.12-1.54,4.14-5.08,2.9,1.12-15.05,2.25-30.23,3.36-45.18,4.5-1.77,6.45-.07,7.91,3.74,4.15,10.85,8.63,21.58,13.41,33.41,4.76-11.74,9.3-22.48,13.44-33.38,1.47-3.88,3.46-5.41,7.97-3.84,1.11,14.94,2.23,30.12,3.35,45.18Z"/><path class="d" d="M756.41,27.18c1.22,1.06,3.48,2.1,3.5,3.18.24,14.43.16,28.87.16,43.3l-1.38,1.18c-1.88-1.31-4.3-2.23-5.55-3.99-7.76-10.97-15.26-22.13-24.01-33.1,0,2.69,0,5.38,0,8.07,0,8.15-.11,16.31.06,24.45.07,3.58-1.37,4.37-4.75,3.38V28.33c3.41-1.78,5.14.07,6.88,2.64,7.51,11.16,15.13,22.24,23.62,34.67V28.25c.49-.36.98-.72,1.47-1.07Z"/><path class="d" d="M925.11,28.16v47.22c-2.82-1.86-5.27-2.68-6.49-4.39-7.05-9.9-13.8-20-20.67-30.03-.89-1.31-1.89-2.54-3.59-4.8v37.64h-4.48V28.35c3.18-1.68,4.91-.15,6.6,2.34,7.52,11.16,15.17,22.25,23.93,33.27,0-2.18,0-4.37,0-6.55,0-8.66.08-17.32-.03-25.98-.04-3.52,1.42-4.37,4.73-3.27Z"/><path class="d" d="M871.56,50.7c.32,13.9-8.87,23.88-22.32,24.26-13.42.38-22.92-9.11-23.28-23.23-.36-14.44,8.59-24.4,22.23-24.75,13.59-.35,23.04,9.25,23.37,23.73ZM848.75,69.95c10.71.01,18.04-7.74,17.96-19-.08-11.45-7.23-18.98-17.99-18.96-10.84.02-17.98,7.59-17.9,18.98.08,11.54,7.09,18.96,17.93,18.98Z"/><path class="d" d="M605.07,50.34c.02-13.59,9.39-23.24,22.68-23.37,13.64-.13,23.27,10.13,23.11,24.61-.15,13.66-10.04,23.56-23.34,23.38-13.54-.18-22.47-9.98-22.44-24.62ZM610.07,50.82c.03,11.66,6.89,19.08,17.69,19.11,10.8.03,18.1-7.55,18.16-18.83.06-11.3-7.22-19.07-17.9-19.1-10.94-.03-17.98,7.35-17.95,18.82Z"/><path class="d" d="M698.13,48.61v-20.34c3.42-1.11,5.11-.68,5.08,3.04-.1,12.99-.12,25.98.02,38.96.04,3.55-1.35,4.43-4.9,3.37v-20.14h-24.31v19.91c-3.25.99-5.2,1.23-5.18-2.5.07-14.13.03-28.27.03-42.55,3.18-1.24,4.96-.91,4.91,2.81-.06,4.66-.17,9.34.13,13.98.08,1.2,1.53,3.27,2.42,3.31,7.1.27,14.22.15,21.81.15Z"/><path class="d" d="M424.3,73.25c5.27-14.34,10.49-28.71,15.92-43,.44-1.15,2.31-2.37,3.56-2.43,1.23-.06,3.27,1.05,3.68,2.13,5.51,14.41,10.8,28.91,16.16,43.43-3.6,1.61-5.15.31-6.27-2.77-2.88-7.92-2.98-7.88-11.33-7.88-.83,0-1.68.11-2.5-.02-7.12-1.16-12.22.46-13.53,8.68-.21,1.35-2.91,2.3-4.46,3.43-.41-.52-.83-1.05-1.24-1.57ZM452.76,57.71c-2.91-8.03-5.66-15.63-8.83-24.38-1.87,5.15-3.26,8.89-4.6,12.65-1.37,3.83-2.69,7.68-4.1,11.73h17.52Z"/><path class="d" d="M778.79,61.66c1.48.83,3.45,1.3,4.34,2.54,4.14,5.76,13.06,8.26,19.06,4.47,1.92-1.21,3.94-4.26,3.76-6.28-.22-2.51-2.13-5.8-4.28-6.99-3.85-2.12-8.43-2.93-12.71-4.27-7.47-2.33-10.45-5.91-10.17-12.22.28-6.26,4.22-10.14,11.68-11.53,9.28-1.72,17.17,2.36,19.66,10.25-2.12,1.57-3.65,2.12-5.53-.84-3.49-5.48-11.26-7.32-16.69-3.88-1.96,1.24-3.96,4.05-4.02,6.21-.07,2.11,1.79,5.27,3.69,6.26,3.92,2.04,8.41,2.98,12.7,4.3,8.07,2.49,11.48,6.57,11.01,13.25-.44,6.25-5.01,10.4-12.88,11.68-9.75,1.59-18.37-3.19-20.48-11.36.29-.53.57-1.07.86-1.6Z"/><path class="d" d="M371.26,28.23v41.41c4.59,0,8.85.08,13.12-.03,3-.07,3.93,1.13,2.8,4.19h-20.98c0-2.84,0-5.6,0-8.36,0-11.32.09-22.64-.04-33.96-.04-3.55,1.36-4.43,5.11-3.25Z"/><path class="d" d="M349.76,73.91h-20.21V28.22c3.93-1.51,4.74.25,4.71,3.68-.11,12.29-.04,24.58-.04,37.75,4.53,0,8.78-.2,13,.12,1.32.1,2.53,1.63,3.79,2.5-.42.55-.83,1.1-1.25,1.65Z"/><path class="d" d="M564.97,70.2c1.62-.39,3.38-1.4,4.84-1.06,8.78,2.01,12.98-1.05,13.1-10.23.14-10.13.03-20.27.03-30.52,3.27-1.34,4.91-.79,4.88,2.84-.08,9.98-.06,19.97-.13,29.95-.08,11.97-12.45,17.56-22.72,9.03Z"/><path class="d" d="M303.38,73.65V28.16c3.25-1.04,4.85-.45,4.82,3.19-.1,12.96-.11,25.92.02,38.87.04,3.47-1.24,4.53-4.84,3.43Z"/><path class="d" d="M408.03,28.24v45.34c-3.39,1.11-4.9.4-4.86-3.44.14-12.79.12-25.57,0-38.36-.03-3.57,1.1-4.92,4.85-3.55Z"/><path class="d" d="M473.11,124.8c6.28,4.79,9.38,12.14,15.58,17.92v-17.79c.62.04,1.24.07,1.86.11v25.03c-6.64-5.53-9.35-13.17-15.55-20.02v19.04c-.8,0-1.6-.01-2.4-.02-.84-7.89-.25-15.84.5-24.28Z"/><path class="d" d="M526.25,139.64c-2.91-.27-5.46-.5-8.01-.74.03-.43.05-.85.08-1.28h10.73v11.33c-.29.06-.57.12-.86.18-.47-.91-.95-1.82-.82-1.57-4.7.48-9.18,1.75-13.34,1.05-2.53-.42-5.29-3.48-6.65-6.04-3.43-6.47-.26-14.69,6.04-17.25,6.03-2.45,12.52-.06,14.65,6.83-5.02-4.2-9.66-7.11-14.83-3.61-1.75,1.19-3.26,3.45-3.85,5.51-1.74,6.08,1.23,11.44,6.5,12.65,5.25,1.2,9.04-1.18,10.34-7.07Z"/><path class="d" d="M407.5,136.98c-.02,7.36-4.91,12.53-11.89,12.58-7.02.05-12.11-5.09-12.21-12.31-.1-7.58,4.88-12.79,12.19-12.75,7.08.03,11.92,5.11,11.9,12.49ZM395.57,127.09c-5.59-.02-9.37,4-9.35,9.94.02,5.91,3.86,9.9,9.47,9.82,5.37-.07,9.04-3.94,9.18-9.67.14-5.77-3.82-10.08-9.3-10.1Z"/><path class="d" d="M358.12,124.53c7.11-.03,12.01,4.94,12.1,12.31.09,7.44-5.12,12.87-12.27,12.76-6.94-.11-11.88-5.38-11.85-12.68.03-7.36,4.88-12.36,12.02-12.39ZM367.38,136.93c-.02-5.97-3.82-9.95-9.41-9.84-5.57.1-9.1,4.11-9,10.2.09,5.81,3.63,9.52,9.11,9.56,5.62.04,9.32-3.91,9.3-9.92Z"/><path class="d" d="M422.28,124.59c5.82,1.04,11.84-2.19,14.73,4.25,1.83,4.09-.08,7.45-4.39,9.5,1.93,3.47,3.81,6.83,6.18,11.06-7.29-1.34-5.36-11.94-13.31-11.29-.24,3.9-.45,7.4-.66,10.89-.53-.01-1.06-.02-1.59-.03-1.77-7.73-.2-15.62-.94-24.39ZM425.46,136.7c3.33-1.1,6.21-1.76,8.73-3.1.61-.33.56-3.91-.11-4.27-2.51-1.34-5.41-1.96-8.62-3v10.37Z"/><path class="d" d="M853.95,130.25c-3.01-1.15-5.7-2.68-8.53-3.02-1.29-.16-3.78,1.83-4.05,3.19-.24,1.21,1.51,3.42,2.93,4.23,2.1,1.21,4.78,1.37,7.05,2.34,3.94,1.68,5.74,6.23,2.92,8.85-2.22,2.06-5.98,3.25-9.11,3.36-4.41.15-5.98-1.76-7.42-7.13,1.7,1.19,2.51,2.03,3.49,2.39,2.53.91,5.1,1.98,7.72,2.2,1.03.09,3.06-1.87,3.14-3.01.1-1.42-.97-3.52-2.2-4.3-1.89-1.2-4.34-1.53-6.56-2.23-3.36-1.07-5.65-3.1-5.12-6.89.52-3.65,3.09-5.23,6.62-5.63,5.44-.61,8.77,1.47,9.12,5.67Z"/><path class="d" d="M593.91,149.1c-.98-7.76-.23-15.61-.42-23.33,9.48-2.58,14.99-.84,16.16,4.85,1.18,5.75-1.44,7.71-13.07,9.66-.17,2.85-.33,5.76-.5,8.67-.72.05-1.44.1-2.16.14ZM596.47,138.06c3.88-1.29,7.11-1.98,9.84-3.54.72-.41.54-4.72-.33-5.18-2.74-1.47-6.01-1.96-9.51-2.96v11.68Z"/><path class="d" d="M672.41,142c-2.13,6.07-6.58,8.3-12.56,7.23-6.25-1.12-10.03-6.21-9.7-13.02.32-6.53,4.48-11.01,10.77-11.61,5.83-.55,9.75,1.71,11.21,7.37-6.01-4.41-11.97-8.08-17.44-1.02-2.73,3.53-2.76,8.11-.19,11.74,5.43,7.66,11.59,3.49,17.91-.68Z"/><path class="d" d="M781.32,142.02c1.53,1.31,2.27,2.35,3.26,2.72,2.39.88,4.9,1.93,7.36,1.92,1.27,0,3.37-1.98,3.57-3.3.19-1.26-1.27-3.4-2.58-4.12-2.28-1.26-5.36-1.22-7.42-2.68-1.89-1.34-4.07-4.04-3.92-5.97.15-2,2.59-4.68,4.65-5.53,5.54-2.27,10.64.59,10.93,6.22-1.19-.96-1.87-1.8-2.75-2.15-2.07-.82-4.25-1.94-6.35-1.88-1.3.04-3.37,1.92-3.56,3.21-.19,1.24,1.29,3.32,2.59,4.05,2.12,1.19,5.12,1.05,6.96,2.48,1.94,1.51,4.22,4.33,4.03,6.37-.19,2.07-2.86,4.81-5.05,5.62-5.79,2.15-10.73-.68-11.7-6.95Z"/><path class="d" d="M562.13,142.57c.87.69,1.64,1.63,2.62,2.01,2.36.91,4.83,2.12,7.25,2.09,1.36-.02,3.41-2.06,3.81-3.55.28-1.05-1.41-3.22-2.74-3.96-2.13-1.18-5.1-1.06-6.95-2.48-1.96-1.51-4.35-4.32-4.13-6.3.23-2.05,3.05-4.7,5.29-5.44,5.37-1.79,9.5.71,10.57,6.2-1.32-.86-2.05-1.58-2.92-1.87-2.39-.79-4.82-1.82-7.27-1.89-1.05-.03-2.88,2-3.03,3.24-.14,1.17,1.21,3.09,2.4,3.7,2.32,1.2,5.34,1.22,7.42,2.66,1.92,1.32,4.17,3.9,4.12,5.87-.05,2.05-2.26,4.85-4.27,5.88-5.01,2.58-10.6.03-12.19-6.17Z"/><path class="d" d="M708.98,143.09c-1.24,2.3-2.33,4.33-3.42,6.35-.41-.15-.82-.3-1.22-.45.08-.98-.04-2.03.28-2.93,2.17-6.1,4.35-12.19,6.72-18.2.46-1.16,1.78-1.97,2.71-2.95.83.87,2.02,1.6,2.43,2.64,2.69,6.93,5.21,13.93,8.29,22.26-1.92-1.03-3.32-1.36-3.41-1.9-.85-5.31-4.61-5.15-8.56-4.84-1.31.1-2.64.02-3.81.02ZM713.99,127.91c-1.65,4.8-2.88,8.4-4.27,12.46h8.66c-1.42-4.03-2.7-7.66-4.39-12.46Z"/><path class="d" d="M175.4,22.03c-7.14-7.26-14.29-14.52-21.61-21.96h7.72c.96,1.55,1.75,3.36,3.01,4.74,2.67,2.95,5.86,5.46,8.32,8.56,1.84,2.32,2.88,5.28,4.28,7.95l-1.71.71Z"/><path class="d" d="M15.43,173.87c-2.36-8.8-14.87-11.07-14.41-21.09,7.15,7.13,14.41,14.37,21.67,21.61.33-.17.66-.34.99-.51h-8.26Z"/><path class="d" d="M627.42,138.73v7.83c3.29.22,6.42.43,9.54.64-.02.47-.04.94-.05,1.41h-12.38v-23.26h12.35c.04.48.09.95.13,1.43-3.05.28-6.1.56-9.46.87v8.02c2.83.15,5.47.29,8.11.43.02.54.05,1.07.07,1.61-2.57.32-5.14.64-8.31,1.03Z"/><path class="d" d="M296.54,125.33h11.68c.05.4.1.79.15,1.19-1.09.26-2.16.68-3.26.74-6.98.37-6.98.34-6.2,8.22,2.69.25,5.48.51,8.27.77.03.47.06.95.09,1.42-1.42.21-2.86.7-4.25.57-3.47-.33-4.83.97-4.54,4.5.17,2.1-.28,4.24-.45,6.37l-1.49-.1v-23.67Z"/><path class="d" d="M749.17,148.79h-10.33v-23.77c.52-.02,1.05-.05,1.57-.07v21.4c3.55.36,6.19.64,8.83.91-.03.51-.05,1.02-.08,1.52Z"/><path class="d" d="M819.07,128.06v20.88c-.43.08-.86.15-1.28.23-.3-1.02-.83-2.04-.85-3.07-.1-4.64-.25-9.3.01-13.93.2-3.55-.72-5.4-4.61-4.97-.62.07-1.33-.55-1.84-1.77h15.01c.1.34.19.68.29,1.02-2.11.5-4.23,1.01-6.73,1.6Z"/><path class="d" d="M453.49,150.34v-25.36c3.11,1.96,3.59,20.14,0,25.36Z"/><path class="d" d="M687.54,148.97v-23.89c2.99,1.67,3.6,19.7,0,23.89Z"/><path class="d" d="M765.49,125.04v24.02c-.54,0-1.08,0-1.63,0-1.28-7.98-.53-15.99-.51-23.98.71-.01,1.42-.03,2.13-.04Z"/><path class="d" d="M323.42,148.52v-23.42c.45-.02.9-.03,1.35-.05v21.37c3.56.31,6.36.56,9.16.8,0,.43,0,.87.01,1.3h-10.53Z"/></g></svg>